<svg xmlns="http://www.w3.org/2000/svg" viewBox="0 0 32 32"><path fill="#0434c4" d="M2.666 2.827C-.04 5.651-.04 5.654 1.979 7.481c2.535 2.294 2.535 3.343-.001 6.042l-2.021 2.152 2.021 2.57c2.524 3.208 2.524 3.991.001 6.274-2.019 1.827-2.019 1.83.687 4.654l2.707 2.825 2.128-1.999c2.657-2.496 3.343-2.494 6.022.023l2.152 2.021 2.57-2.021c3.183-2.504 3.612-2.505 6.249-.027l2.124 1.995 3.441-3.734c1.893-2.054 3.028-3.4 2.522-2.993-1.082.873-4.581-2.026-4.581-3.796 0-.672.7-1.803 1.555-2.512.855-.71 2.041-2.228 2.635-3.373.595-1.145.719-1.744.277-1.33-.912.853-4.467-2.014-4.467-3.602 0-.572 1.238-2.413 2.75-4.09 1.513-1.678 2.331-2.708 1.819-2.291-.512.417-2.121-.382-3.576-1.776L26.347-.041l-1.828 2.02c-2.294 2.535-3.343 2.535-6.042-.001L16.325-.043l-2.57 2.021c-3.183 2.504-3.611 2.506-6.254.023L5.373.002 2.666 2.827m5.001 4.84c-1.214 1.213-.692 4.648.988 6.504 1.541 1.704 1.536 1.961-.08 3.747-4.038 4.461 1.046 9.545 5.507 5.507 1.821-1.647 2.015-1.647 3.836 0 1.054.955 2.967 1.587 4.25 1.405 2.962-.419 3.66-4.257 1.257-6.912-1.647-1.821-1.647-2.015 0-3.836 4.038-4.461-1.046-9.545-5.507-5.507-1.786 1.616-2.043 1.621-3.747.08-1.856-1.68-5.291-2.202-6.504-.988" fill-rule="evenodd"/></svg>